<?xml version="1.0" encoding="UTF-8" standalone="no"?><!DOCTYPE svg PUBLIC "-//W3C//DTD SVG 1.1//EN" "http://www.w3.org/Graphics/SVG/1.1/DTD/svg11.dtd"><svg width="100%" height="100%" viewBox="0 0 512 512" version="1.1" xmlns="http://www.w3.org/2000/svg" xmlns:xlink="http://www.w3.org/1999/xlink" xml:space="preserve" xmlns:serif="http://www.serif.com/" style="fill-rule:evenodd;clip-rule:evenodd;stroke-linejoin:round;stroke-miterlimit:2;"><path d="M213.77,296.742c0.589,7.939 0.589,15.311 0.589,22.684c0,43.099 -40.67,72.02 -99.023,72.02l23.087,-54.552c-97.844,0 8.704,-23.006 8.704,-85.386c0,-62.947 -139.065,-153.813 -40.043,-153.813c57.174,0 87.234,22.116 104.327,62.947l5.25,26.023l98.106,39.463l-26.732,-69.456c-21.809,-63.514 -74.267,-119.655 -176.237,-119.655c-159.143,0 -64.511,118.521 -64.511,206.987c0,83.929 -95.811,207.554 59.796,207.554c43.617,0 78.393,-8.506 107.274,-30.056l0,23.818l287.888,3.482c-430.229,-69.294 -181.562,-143.776 -210.085,-216.14l-69.707,10.446l-8.686,53.635Z" style="fill:#ff5900;fill-rule:nonzero;"/></svg>