<?xml version="1.0" encoding="UTF-8" standalone="no"?><!DOCTYPE svg PUBLIC "-//W3C//DTD SVG 1.1//EN" "http://www.w3.org/Graphics/SVG/1.1/DTD/svg11.dtd"><svg width="100%" height="100%" viewBox="0 0 1500 500" version="1.1" xmlns="http://www.w3.org/2000/svg" xmlns:xlink="http://www.w3.org/1999/xlink" xml:space="preserve" xmlns:serif="http://www.serif.com/" style="fill-rule:evenodd;clip-rule:evenodd;stroke-linejoin:round;stroke-miterlimit:2;"><g><g><path d="M516.138,392.65l0.354,-33.169l-43.213,-0.588c-3.544,0.341 -8.151,1.023 -12.759,1.364c-4.253,0.682 -8.151,1.023 -11.341,1.023c0,0 -0.354,-0.341 -0.709,-0.682c-0.709,-1.023 -1.063,-2.046 -1.063,-3.069l0,-111.841l28.352,0l0,-29.665l-36.504,0c3.898,-6.138 6.025,-12.275 6.025,-20.459l0,-26.255l-39.693,0l0,27.278c0,9.547 -8.151,19.436 -19.138,19.436l-5.67,0l0,29.665l24.808,0l0,111.841c0,15.003 12.759,37.849 41.111,37.849c8.86,0 18.429,-1.705 27.644,-2.387l41.795,-0.341Z" style="fill:#fff;"/><path d="M510.138,392.991l41.82,0l0,-102.975c0,-18.072 3.19,-35.462 26.226,-35.462l33.314,0l0,-38.53l-24.1,0c-16.303,0 -29.77,7.842 -38.63,17.049c-4.253,-8.865 -13.822,-17.049 -28.707,-17.049l-27.998,0l0,36.826l9.923,0c3.898,0 8.151,4.092 8.151,9.206l0,130.935Z" style="fill:#fff;"/><path d="M739.68,315.248c-0.354,13.639 -2.481,21.482 -12.759,33.075c-7.797,8.865 -22.328,17.049 -35.441,17.049c-19.138,0 -33.314,-7.842 -33.314,-21.823c0,-23.186 27.644,-29.324 58.123,-29.324c7.797,0 15.948,0.341 23.391,1.023Zm-112.701,-42.281l40.757,0l1.063,-3.069c5.316,-13.639 18.075,-26.596 36.149,-26.596c21.973,0 34.732,13.639 34.732,30.347l0,11.593c-7.797,-1.023 -16.303,-1.023 -24.454,-1.023c-49.971,0 -99.942,13.298 -99.942,58.648c0,20.8 11.695,40.917 40.048,50.124c7.088,2.728 15.594,4.092 24.1,4.092c23.745,0 46.782,-8.865 62.375,-21.823c3.898,8.865 13.113,17.39 27.998,17.39l73.132,1.27l-30.483,-35.462l-25.992,-1.27c-5.67,0 -6.025,-0.682 -6.025,-3.41l0,-78.084c0,-33.416 -23.745,-63.763 -75.843,-63.763c-32.605,0 -55.996,16.367 -68.755,36.144c-3.898,5.797 -7.443,13.298 -8.506,20.459l-0.354,4.433Z" style="fill:#fff;"/><path d="M931.768,340.481l-1.418,2.728c-5.67,11.934 -18.429,21.482 -34.377,21.482c-12.759,0 -21.973,-5.797 -29.416,-14.321c-10.632,-11.934 -13.113,-31.37 -13.113,-46.032c0,-15.685 2.126,-34.098 13.113,-46.373c7.443,-8.865 16.303,-14.662 29.416,-14.662c21.619,0 34.023,16.708 38.63,33.075l1.063,2.728l44.301,0l-1.063,-4.433c-7.443,-30.688 -32.251,-63.081 -82.931,-63.081c-23.391,0 -43.238,7.502 -58.123,20.118c-23.036,19.436 -27.998,49.101 -27.998,72.628c0,52.17 28.707,92.064 86.121,92.064c41.82,0 69.818,-24.209 79.387,-51.147l2.126,-4.774l-45.718,0Z" style="fill:#fff;"/><path d="M1038.09,293.767c1.418,-22.846 13.822,-50.465 45.718,-50.465c29.061,0 45.01,24.209 46.782,50.465l-92.5,0Zm84.349,47.737l-1.063,2.728c-4.607,11.934 -20.556,20.459 -37.567,20.459c-29.77,0 -43.946,-29.665 -45.718,-51.829l132.548,0l0.354,-3.751c0.354,-4.092 0.354,-7.502 0.354,-11.252c0,-21.823 -4.962,-42.963 -24.1,-61.376c-15.594,-15.685 -36.149,-24.891 -63.439,-24.891c-23.391,0 -43.946,7.502 -59.186,20.118c-23.036,19.095 -28.352,49.101 -28.352,72.628c0,52.852 29.77,92.064 87.538,92.064c32.96,0 55.996,-15.003 70.527,-34.098c3.544,-4.774 7.088,-10.229 9.215,-16.026l2.126,-4.774l-43.238,0Z" style="fill:#fff;"/><rect x="1196.155" y="151.92" width="41.465" height="240.73" style="fill:#fff;"/><path d="M1269.871,192.155l41.465,0l0,-41.599l-20.201,4.092c-15.239,3.069 -21.264,15.003 -21.264,23.868l0,13.639Zm0,201.177l41.465,-0.682l0,-176.627l-41.465,0l0,177.308Z" style="fill:#fff;"/><path d="M1429.354,392.65l0.354,-34.439l-6.379,0.682c-3.544,0.341 -8.151,1.023 -12.759,1.364c-4.253,0.682 -8.151,1.023 -11.341,1.023c0,0 -0.354,-0.341 -0.709,-0.682c-0.709,-1.023 -1.063,-2.046 -1.063,-3.069l0,-111.841l28.352,0l0,-29.665l-36.504,0c3.898,-6.138 6.025,-12.275 6.025,-20.459l0,-26.255l-39.693,0l0,27.278c0,9.547 -8.151,19.436 -19.138,19.436l-5.67,0l0,29.665l24.808,0l0,111.841c0,15.003 12.759,37.849 41.111,37.849c8.86,0 18.429,-1.705 27.644,-2.387l4.962,-0.341Z" style="fill:#fff;"/></g><path d="M226.32,277.33c0.483,6.501 0.483,12.537 0.483,18.574c0,35.29 -33.301,58.971 -81.081,58.971l18.904,-44.668c-80.116,0 7.127,-18.838 7.127,-69.915c0,-51.542 -113.869,-125.945 -32.787,-125.945c46.815,0 71.429,18.109 85.425,51.542l4.299,21.308l80.331,32.313l-21.889,-56.871c-17.857,-52.006 -60.811,-97.976 -144.305,-97.976c-130.309,0 -52.823,97.047 -52.823,169.484c0,68.722 -78.452,169.948 48.962,169.948c35.714,0 64.189,-6.965 87.838,-24.61l0,19.502l235.727,2.851c-352.278,-56.739 -148.666,-117.726 -172.021,-176.979l-57.077,8.554l-7.112,43.917Z" style="fill:#fff;fill-rule:nonzero;"/></g></svg>